<?xml version="1.0" encoding="iso-8859-1"?>
<!-- Generator: Adobe Illustrator 19.0.0, SVG Export Plug-In . SVG Version: 6.00 Build 0)  -->
<svg xmlns="http://www.w3.org/2000/svg" xmlns:xlink="http://www.w3.org/1999/xlink" version="1.1" id="Layer_1" x="0px" y="0px" viewBox="0 0 512 512" style="enable-background:new 0 0 512 512;" xml:space="preserve" width="512" height="512">
<g>
	<circle style="fill:#FF637B;" cx="256" cy="256" r="256"/>
	<path style="fill:#E63950;" d="M328.977,501.428c98.713-29.308,172.496-116.531,181.972-222.292l-69.025-69.025L353.5,217   L293,190.5L69.884,210.21l103.958,103.958l-16.063,16.063L328.977,501.428z"/>
	<g>
		<rect x="397.846" y="215.87" style="fill:#FDBF00;" width="21.823" height="103.444"/>
		<path style="fill:#FDBF00;" d="M408.758,400.211l-34.189-35.099l34.189-70.199l33.461,70.199L408.758,400.211z"/>
		<polygon style="fill:#0095FF;" points="442.219,210.201 256,308.403 69.781,210.201 256,112   "/>
		<polygon style="fill:#006EFF;" points="442.219,210.201 256,308.403 256,112   "/>
		<path style="fill:#4BB9EC;" d="M348.09,220.894c-28.805-14.185-60.448-21.386-92.09-21.386s-63.286,7.2-92.09,21.386l-6.111,3.055    v106.276h196.403V223.95L348.09,220.894z"/>
		<path style="fill:#0095FF;" d="M354.201,223.95v106.276H256V199.509c31.643,0,63.286,7.2,92.09,21.386L354.201,223.95z"/>
	</g>
</g>















</svg>
